# xmcd
#
# Track frame offsets: 
#        150
#        20822
#        34864
#        45736
#        58980
#        73370
#        105235
#        125807
#        140049
#        152019
#        170393
#        192650
#        208836
#        223329
#        240596
#
# Disc length: 3454 seconds
#
# Revision: 0
# Processed by: cddbd v1.5.2PL0 Copyright (c) Steve Scherf et al.
# Submitted via: ExactAudioCopy v0.99pb5
#
DISCID=f40d7c0f
DTITLE=Versch - Fiori Musicali
DYEAR=2010
DGENRE=A Cappella
TTITLE0=Samba Saravah - Baden Powell and Vinicius de Moraes
TTITLE1=Summer Samba - Stan Getz and Charlie Byrd
TTITLE2=Fado Portugues de Nos - Mariza
TTITLE3=Tale IV-Moderato Melancolico - Goran Bregovic
TTITLE4=Ha uma musica do povo - Mariza
TTITLE5=Cycle Song - David Darling
TTITLE6=Quando penso a Berlusconi (live) - Roberto Benigni
TTITLE7=Vesoul - Jacques Brel
TTITLE8=Les prenomes de Paris - Jacques Brel
TTITLE9=Paroles - Dalida and Joe Dassin
TTITLE10=06 Green Door
TTITLE11=Chocolate Chip Cookies - Wise Guys
TTITLE12=Titel 02 - Tetes Raides
TTITLE13=Alten Resten eine Chance - Element of Crime
TTITLE14=Palhaco - Egberto Gismonti
EXTD=
EXTT0=
EXTT1=
EXTT2=
EXTT3=
EXTT4=
EXTT5=
EXTT6=
EXTT7=
EXTT8=
EXTT9=
EXTT10=
EXTT11=
EXTT12=
EXTT13=
EXTT14=
PLAYORDER=
